<svg width="16" height="17" viewBox="0 0 16 17" fill="none"
    xmlns="http://www.w3.org/2000/svg">
    <path d="M14 8.33342H2.00004C1.36004 8.33342 0.833374 7.80676 0.833374 7.16676V4.95342C0.833374 4.50008 1.14669 4.04009 1.56669 3.87342L7.56669 1.47344C7.82002 1.37344 8.18006 1.37344 8.43339 1.47344L14.4334 3.87342C14.8534 4.04009 15.1667 4.50675 15.1667 4.95342V7.16676C15.1667 7.80676 14.64 8.33342 14 8.33342ZM8.00004 2.39344C7.97337 2.39344 7.94672 2.39341 7.93339 2.40007L1.94002 4.8001C1.90002 4.8201 1.83337 4.90675 1.83337 4.95342V7.16676C1.83337 7.26009 1.90671 7.33342 2.00004 7.33342H14C14.0934 7.33342 14.1667 7.26009 14.1667 7.16676V4.95342C14.1667 4.90675 14.1067 4.8201 14.0601 4.8001L8.06006 2.40007C8.04673 2.39341 8.02671 2.39344 8.00004 2.39344Z" fill="white"/>
    <path d="M14.6667 15.6667H1.33337C1.06004 15.6667 0.833374 15.44 0.833374 15.1667V13.1667C0.833374 12.5267 1.36004 12 2.00004 12H14C14.64 12 15.1667 12.5267 15.1667 13.1667V15.1667C15.1667 15.44 14.94 15.6667 14.6667 15.6667ZM1.83337 14.6667H14.1667V13.1667C14.1667 13.0733 14.0934 13 14 13H2.00004C1.90671 13 1.83337 13.0733 1.83337 13.1667V14.6667Z" fill="white"/>
    <path d="M2.66663 12.9999C2.39329 12.9999 2.16663 12.7733 2.16663 12.4999V7.83325C2.16663 7.55992 2.39329 7.33325 2.66663 7.33325C2.93996 7.33325 3.16663 7.55992 3.16663 7.83325V12.4999C3.16663 12.7733 2.93996 12.9999 2.66663 12.9999Z" fill="white"/>
    <path d="M5.33337 12.9999C5.06004 12.9999 4.83337 12.7733 4.83337 12.4999V7.83325C4.83337 7.55992 5.06004 7.33325 5.33337 7.33325C5.60671 7.33325 5.83337 7.55992 5.83337 7.83325V12.4999C5.83337 12.7733 5.60671 12.9999 5.33337 12.9999Z" fill="white"/>
    <path d="M8 12.9999C7.72667 12.9999 7.5 12.7733 7.5 12.4999V7.83325C7.5 7.55992 7.72667 7.33325 8 7.33325C8.27333 7.33325 8.5 7.55992 8.5 7.83325V12.4999C8.5 12.7733 8.27333 12.9999 8 12.9999Z" fill="white"/>
    <path d="M10.6666 12.9999C10.3933 12.9999 10.1666 12.7733 10.1666 12.4999V7.83325C10.1666 7.55992 10.3933 7.33325 10.6666 7.33325C10.94 7.33325 11.1666 7.55992 11.1666 7.83325V12.4999C11.1666 12.7733 10.94 12.9999 10.6666 12.9999Z" fill="white"/>
    <path d="M13.3334 12.9999C13.06 12.9999 12.8334 12.7733 12.8334 12.4999V7.83325C12.8334 7.55992 13.06 7.33325 13.3334 7.33325C13.6067 7.33325 13.8334 7.55992 13.8334 7.83325V12.4999C13.8334 12.7733 13.6067 12.9999 13.3334 12.9999Z" fill="white"/>
    <path d="M15.3333 15.6667H0.666626C0.393293 15.6667 0.166626 15.4401 0.166626 15.1667C0.166626 14.8934 0.393293 14.6667 0.666626 14.6667H15.3333C15.6066 14.6667 15.8333 14.8934 15.8333 15.1667C15.8333 15.4401 15.6066 15.6667 15.3333 15.6667Z" fill="white"/>
    <path d="M8 6.66675C7.17333 6.66675 6.5 5.99341 6.5 5.16675C6.5 4.34008 7.17333 3.66675 8 3.66675C8.82667 3.66675 9.5 4.34008 9.5 5.16675C9.5 5.99341 8.82667 6.66675 8 6.66675ZM8 4.66675C7.72667 4.66675 7.5 4.89341 7.5 5.16675C7.5 5.44008 7.72667 5.66675 8 5.66675C8.27333 5.66675 8.5 5.44008 8.5 5.16675C8.5 4.89341 8.27333 4.66675 8 4.66675Z" fill="white"/>
</svg>
